<svg xmlns="http://www.w3.org/2000/svg" viewBox="0 0 490.35 95.06"><defs><style>.cls-1{fill:#fff;}.cls-1,.cls-3{stroke:#074d87;stroke-miterlimit:10;stroke-width:4px;}.cls-2{fill:#074d87;}.cls-3{fill:none;}</style></defs><g id="Layer_2" data-name="Layer 2"><g id="Layer_1-2" data-name="Layer 1"><rect class="cls-1" x="2" y="2" width="486.35" height="91.06" rx="13.57"/><path class="cls-2" d="M28,20.66H21.48v-2a3.88,3.88,0,0,0-.25-1.79.93.93,0,0,0-.84-.39,1.06,1.06,0,0,0-1,.52,3,3,0,0,0-.33,1.58,4.52,4.52,0,0,0,.37,2,5.42,5.42,0,0,0,2,1.66q4.71,2.79,5.94,4.59t1.22,5.78a10.18,10.18,0,0,1-.68,4.27,5.3,5.3,0,0,1-2.62,2.3,10.37,10.37,0,0,1-4.52.93A10.09,10.09,0,0,1,16,39.07a5.23,5.23,0,0,1-2.62-2.73,14,14,0,0,1-.62-4.71V29.86h6.55v3.3a4.26,4.26,0,0,0,.28,2,1.06,1.06,0,0,0,1,.43,1.12,1.12,0,0,0,1-.55,3.12,3.12,0,0,0,.35-1.64c0-1.6-.22-2.64-.66-3.13A19.54,19.54,0,0,0,18,27.76a31.73,31.73,0,0,1-3.48-2.53,6,6,0,0,1-1.42-2.17,9.73,9.73,0,0,1-.56-3.56A9.84,9.84,0,0,1,13.3,15a5.42,5.42,0,0,1,2.57-2.26,10.26,10.26,0,0,1,4.29-.81,11.2,11.2,0,0,1,4.68.89A4.92,4.92,0,0,1,27.41,15,12,12,0,0,1,28,19.59Z"/><path class="cls-2" d="M40.32,12.45V39.57h-7V12.45Z"/><path class="cls-2" d="M61.34,12.45V39.57H55.15L51.48,27.24V39.57H45.59V12.45h5.89l4,12.21V12.45Z"/><path class="cls-2" d="M78.79,12.45l4,27.12H75.62l-.38-4.87H72.72l-.43,4.87H65l3.6-27.12ZM75.06,29.89Q74.52,25.29,74,18.5q-1.08,7.79-1.35,11.39Z"/><path class="cls-2" d="M108.22,12.45V39.57h-6.16V21.26L99.6,39.57H95.22L92.64,21.68V39.57H86.46V12.45h9.13q.41,2.45.84,5.77l1,6.9,1.62-12.67Z"/><path class="cls-2" d="M135.25,12.45V39.57h-6.16V21.26l-2.45,18.31h-4.38l-2.58-17.89V39.57h-6.17V12.45h9.13q.41,2.45.84,5.77l1,6.9,1.62-12.67Z"/><path class="cls-2" d="M150.57,56.19h11.76v5.42h-4.71v5.15H162v5.16h-4.4v6h5.18v5.43H150.57Z"/><path class="cls-2" d="M183,56.19V83.31h-6.19L173.16,71V83.31h-5.9V56.19h5.9l4,12.21V56.19Z"/><path class="cls-2" d="M204.46,66.17H197.4V63.71a12,12,0,0,0-.2-2.92.88.88,0,0,0-.95-.58.89.89,0,0,0-.89.5,8.16,8.16,0,0,0-.23,2.58v13a7.62,7.62,0,0,0,.23,2.4.91.91,0,0,0,.94.58,1.05,1.05,0,0,0,1-.65,7.87,7.87,0,0,0,.27-2.55V72.87H196.2V68.75h8.26V83.31H200l-.65-1.94a4.85,4.85,0,0,1-1.82,1.88,5.1,5.1,0,0,1-2.59.63,6.76,6.76,0,0,1-3.32-.86,6.4,6.4,0,0,1-2.36-2.14,6.82,6.82,0,0,1-1-2.67,32.86,32.86,0,0,1-.2-4.2V66a26.84,26.84,0,0,1,.42-5.64,5.81,5.81,0,0,1,2.41-3.23A8.45,8.45,0,0,1,196,55.62a9.53,9.53,0,0,1,5.14,1.27,6,6,0,0,1,2.67,3,16.17,16.17,0,0,1,.62,5.09Z"/><path class="cls-2" d="M216.68,56.19V83.31h-7.06V56.19Z"/><path class="cls-2" d="M237.69,56.19V83.31h-6.18L227.84,71V83.31h-5.9V56.19h5.9l4,12.21V56.19Z"/><path class="cls-2" d="M243,56.19h11.76v5.42H250v5.15h4.41v5.16H250v6h5.18v5.43H243Z"/><path class="cls-2" d="M259.65,56.19h11.76v5.42h-4.7v5.15h4.4v5.16h-4.4v6h5.17v5.43H259.65Z"/><path class="cls-2" d="M276.35,56.19h5a39,39,0,0,1,6.76.38,4.67,4.67,0,0,1,2.88,2,9,9,0,0,1,1.11,5.05q0,3.16-.78,4.26a4.15,4.15,0,0,1-3.1,1.3,5.27,5.27,0,0,1,2.81,1.4,4.22,4.22,0,0,1,.9,1.59,26.78,26.78,0,0,1,.17,4v7.15h-6.55v-9a6.25,6.25,0,0,0-.34-2.7c-.23-.35-.83-.52-1.8-.52V83.31h-7Zm7,4.64v6a3.1,3.1,0,0,0,1.67-.33c.31-.22.47-.92.47-2.12V62.92a2.25,2.25,0,0,0-.46-1.69A2.61,2.61,0,0,0,283.4,60.83Z"/><path class="cls-2" d="M304.31,56.19V83.31h-7.05V56.19Z"/><path class="cls-2" d="M325.33,56.19V83.31h-6.18L315.48,71V83.31h-5.9V56.19h5.9l3.95,12.21V56.19Z"/><path class="cls-2" d="M346.78,66.17h-7V63.71a12.59,12.59,0,0,0-.2-2.92,1.06,1.06,0,0,0-1.85-.08,8.49,8.49,0,0,0-.23,2.58v13a7.94,7.94,0,0,0,.23,2.4.91.91,0,0,0,.94.58,1.05,1.05,0,0,0,1.05-.65,7.87,7.87,0,0,0,.27-2.55V72.87h-1.42V68.75h8.26V83.31h-4.43l-.66-1.94a4.9,4.9,0,0,1-1.81,1.88,5.16,5.16,0,0,1-2.6.63A6.76,6.76,0,0,1,334,83a6.4,6.4,0,0,1-2.36-2.14,6.8,6.8,0,0,1-1-2.67,30.73,30.73,0,0,1-.21-4.2V66a26.84,26.84,0,0,1,.42-5.64,5.81,5.81,0,0,1,2.41-3.23,8.45,8.45,0,0,1,5.13-1.46,9.59,9.59,0,0,1,5.15,1.27,6,6,0,0,1,2.66,3,16.17,16.17,0,0,1,.62,5.09Z"/><path class="cls-2" d="M367.48,56.19V77.88h4.29v5.43H360.43V56.19Z"/><path class="cls-2" d="M383,56.19V83.31h-7.05V56.19Z"/><path class="cls-2" d="M410,56.19V83.31h-6.17V65l-2.46,18.31H397l-2.59-17.89V83.31h-6.16V56.19h9.12q.4,2.45.84,5.76l1,6.9,1.62-12.66Z"/><path class="cls-2" d="M422.32,56.19V83.31h-7.05V56.19Z"/><path class="cls-2" d="M441.79,56.19v5.42h-4.18v21.7h-7.06V61.61h-4.17V56.19Z"/><path class="cls-2" d="M445.84,56.19H457.6v5.42h-4.71v5.15h4.41v5.16h-4.41v6h5.18v5.43H445.84Z"/><path class="cls-2" d="M462.53,56.19h5.28a32.27,32.27,0,0,1,6.91.47,5.27,5.27,0,0,1,2.74,1.54,4.94,4.94,0,0,1,1.17,2.38,35.31,35.31,0,0,1,.24,5.17v9.5a21.9,21.9,0,0,1-.35,4.89,3.65,3.65,0,0,1-1.2,1.92,4.84,4.84,0,0,1-2.11,1,18.52,18.52,0,0,1-3.78.28h-8.9Zm7.06,4.64V78.67c1,0,1.64-.2,1.87-.61a8.88,8.88,0,0,0,.35-3.33V64.2a15.67,15.67,0,0,0-.11-2.37,1.13,1.13,0,0,0-.54-.76A3.53,3.53,0,0,0,469.59,60.83Z"/><line class="cls-3" x1="142.55" y1="11.89" x2="142.55" y2="83.31"/><line class="cls-3" x1="11.68" y1="48.07" x2="478.86" y2="48.07"/></g></g></svg>